<svg xmlns="http://www.w3.org/2000/svg" width="1792" height="1024" viewBox="0 0 1792 1024">
  <defs>
    <linearGradient id="bg" x1="0" y1="0" x2="1" y2="1">
      <stop offset="0" stop-color="#f8f4ef"/>
      <stop offset="0.48" stop-color="#ffffff"/>
      <stop offset="1" stop-color="#ead7ca"/>
    </linearGradient>
    <linearGradient id="rose" x1="0" y1="0" x2="1" y2="1">
      <stop offset="0" stop-color="#d8a06f"/>
      <stop offset="1" stop-color="#9a4760"/>
    </linearGradient>
    <linearGradient id="darkfade" x1="0" y1="0" x2="1" y2="0">
      <stop offset="0" stop-color="#121212" stop-opacity="0.82"/>
      <stop offset="0.40" stop-color="#121212" stop-opacity="0.50"/>
      <stop offset="0.72" stop-color="#121212" stop-opacity="0.04"/>
      <stop offset="1" stop-color="#121212" stop-opacity="0"/>
    </linearGradient>
    <filter id="shadow" x="-20%" y="-20%" width="140%" height="140%">
      <feDropShadow dx="0" dy="22" stdDeviation="20" flood-color="#3d251e" flood-opacity="0.18"/>
    </filter>
    <filter id="softshadow" x="-20%" y="-20%" width="140%" height="140%">
      <feDropShadow dx="0" dy="12" stdDeviation="12" flood-color="#3d251e" flood-opacity="0.12"/>
    </filter>
    <pattern id="grid" width="64" height="64" patternUnits="userSpaceOnUse">
      <path d="M64 0H0V64" fill="none" stroke="#eadfd7" stroke-width="1" opacity="0.35"/>
    </pattern>
  </defs>

  <rect width="1792" height="1024" fill="url(#bg)"/>
  <rect width="1792" height="1024" fill="url(#grid)"/>

  <circle cx="1390" cy="162" r="280" fill="#f5d9dc" opacity="0.42"/>
  <circle cx="1184" cy="838" r="360" fill="#efd0b3" opacity="0.35"/>
  <rect x="0" y="0" width="1792" height="1024" fill="url(#darkfade)"/>

  <g transform="translate(715 92)" filter="url(#shadow)">
    <rect x="0" y="0" width="430" height="585" rx="18" fill="#ffffff"/>
    <rect x="24" y="24" width="382" height="537" rx="12" fill="#fffdfb" stroke="#e6d9cf" stroke-width="2"/>
    <rect x="54" y="58" width="322" height="5" rx="2.5" fill="url(#rose)"/>
    <text x="215" y="108" text-anchor="middle" font-family="Arial, Helvetica, sans-serif" font-size="23" font-weight="700" fill="#171717">GUANGZHOU NEWNAIL</text>
    <text x="215" y="138" text-anchor="middle" font-family="Arial, Helvetica, sans-serif" font-size="17" font-weight="700" fill="#171717">COSMETICS CO.,LTD</text>
    <text x="215" y="185" text-anchor="middle" font-family="Arial, Helvetica, sans-serif" font-size="34" font-weight="800" fill="#7e3148">CERTIFICATE FILES</text>
    <rect x="74" y="220" width="282" height="48" rx="24" fill="#f7e9ed"/>
    <text x="215" y="251" text-anchor="middle" font-family="Arial, Helvetica, sans-serif" font-size="18" font-weight="800" fill="#7e3148">EU / US DOCUMENT SUPPORT</text>
    <g fill="#b9a594" opacity="0.8">
      <rect x="76" y="312" width="280" height="10" rx="5"/>
      <rect x="76" y="342" width="230" height="10" rx="5"/>
      <rect x="76" y="372" width="260" height="10" rx="5"/>
      <rect x="76" y="402" width="196" height="10" rx="5"/>
    </g>
    <circle cx="215" cy="492" r="46" fill="none" stroke="#c59a5b" stroke-width="8"/>
    <text x="215" y="503" text-anchor="middle" font-family="Arial, Helvetica, sans-serif" font-size="28" font-weight="900" fill="#c59a5b">QC</text>
  </g>

  <g transform="translate(1188 150) rotate(4)" filter="url(#softshadow)">
    <rect width="270" height="360" rx="15" fill="#ffffff"/>
    <rect x="22" y="22" width="226" height="316" rx="10" fill="#fffdfb" stroke="#e5d8ce" stroke-width="2"/>
    <text x="135" y="112" text-anchor="middle" font-family="Arial, Helvetica, sans-serif" font-size="64" font-weight="900" fill="#7e3148">CE</text>
    <text x="135" y="158" text-anchor="middle" font-family="Arial, Helvetica, sans-serif" font-size="18" font-weight="800" fill="#171717">DOCUMENT</text>
    <rect x="52" y="202" width="166" height="8" rx="4" fill="#c9b6aa"/>
    <rect x="52" y="230" width="134" height="8" rx="4" fill="#c9b6aa"/>
    <rect x="52" y="258" width="150" height="8" rx="4" fill="#c9b6aa"/>
  </g>

  <g transform="translate(1350 450) rotate(-5)" filter="url(#softshadow)">
    <rect width="282" height="366" rx="15" fill="#ffffff"/>
    <rect x="22" y="22" width="238" height="322" rx="10" fill="#fffdfb" stroke="#e5d8ce" stroke-width="2"/>
    <text x="141" y="122" text-anchor="middle" font-family="Arial, Helvetica, sans-serif" font-size="46" font-weight="900" fill="#506a84">GPSR</text>
    <text x="141" y="166" text-anchor="middle" font-family="Arial, Helvetica, sans-serif" font-size="18" font-weight="800" fill="#171717">EU FILE</text>
    <rect x="54" y="210" width="174" height="8" rx="4" fill="#c9b6aa"/>
    <rect x="54" y="238" width="132" height="8" rx="4" fill="#c9b6aa"/>
    <rect x="54" y="266" width="152" height="8" rx="4" fill="#c9b6aa"/>
  </g>

  <g transform="translate(1015 622) rotate(2)" filter="url(#softshadow)">
    <rect width="270" height="330" rx="15" fill="#ffffff"/>
    <rect x="22" y="22" width="226" height="286" rx="10" fill="#fffdfb" stroke="#e5d8ce" stroke-width="2"/>
    <text x="135" y="116" text-anchor="middle" font-family="Arial, Helvetica, sans-serif" font-size="42" font-weight="900" fill="#6f8375">MSDS</text>
    <text x="135" y="158" text-anchor="middle" font-family="Arial, Helvetica, sans-serif" font-size="18" font-weight="800" fill="#171717">SAFETY DATA</text>
    <rect x="52" y="204" width="166" height="8" rx="4" fill="#c9b6aa"/>
    <rect x="52" y="232" width="134" height="8" rx="4" fill="#c9b6aa"/>
  </g>

  <g transform="translate(552 652) rotate(-4)" filter="url(#softshadow)">
    <rect width="270" height="330" rx="15" fill="#ffffff"/>
    <rect x="22" y="22" width="226" height="286" rx="10" fill="#fffdfb" stroke="#e5d8ce" stroke-width="2"/>
    <text x="135" y="116" text-anchor="middle" font-family="Arial, Helvetica, sans-serif" font-size="42" font-weight="900" fill="#151515">SGS</text>
    <text x="135" y="158" text-anchor="middle" font-family="Arial, Helvetica, sans-serif" font-size="18" font-weight="800" fill="#171717">TEST REPORT</text>
    <rect x="52" y="204" width="166" height="8" rx="4" fill="#c9b6aa"/>
    <rect x="52" y="232" width="134" height="8" rx="4" fill="#c9b6aa"/>
  </g>

  <g transform="translate(462 220) rotate(-7)" filter="url(#softshadow)">
    <rect width="270" height="360" rx="15" fill="#ffffff"/>
    <rect x="22" y="22" width="226" height="316" rx="10" fill="#fffdfb" stroke="#e5d8ce" stroke-width="2"/>
    <text x="135" y="122" text-anchor="middle" font-family="Arial, Helvetica, sans-serif" font-size="52" font-weight="900" fill="#c59a5b">COA</text>
    <text x="135" y="166" text-anchor="middle" font-family="Arial, Helvetica, sans-serif" font-size="18" font-weight="800" fill="#171717">BATCH FILE</text>
    <rect x="52" y="212" width="166" height="8" rx="4" fill="#c9b6aa"/>
    <rect x="52" y="240" width="134" height="8" rx="4" fill="#c9b6aa"/>
    <rect x="52" y="268" width="150" height="8" rx="4" fill="#c9b6aa"/>
  </g>

  <g transform="translate(1160 80)">
    <circle cx="0" cy="0" r="56" fill="url(#rose)" opacity="0.9"/>
    <path d="M-23 2l16 16 34-40" fill="none" stroke="#fff" stroke-width="10" stroke-linecap="round" stroke-linejoin="round"/>
  </g>

  <g opacity="0.52">
    <rect x="1198" y="848" width="240" height="12" rx="6" fill="#d9c7bd"/>
    <rect x="1232" y="882" width="160" height="10" rx="5" fill="#d9c7bd"/>
  </g>
</svg>
